<svg width="287" height="60" viewBox="0 0 287 60" fill="none" xmlns="http://www.w3.org/2000/svg">
<path d="M87.1 38H80.22V37.24C80.4867 37.1333 80.7867 37.0267 81.12 36.92C81.4667 36.8 81.8133 36.7133 82.16 36.66V25.3H79.84L78.56 28.72H77.74C77.6867 28.4533 77.6333 28.1133 77.58 27.7C77.5267 27.2867 77.48 26.86 77.44 26.42C77.4 25.98 77.3667 25.5467 77.34 25.12C77.3133 24.68 77.3 24.3067 77.3 24H90.04C90.04 24.32 90.0267 24.6933 90 25.12C89.9733 25.5467 89.94 25.98 89.9 26.42C89.86 26.86 89.8133 27.2867 89.76 27.7C89.7067 28.1 89.6533 28.44 89.6 28.72H88.76L87.48 25.3H85.16V36.66C85.5067 36.7267 85.8467 36.8067 86.18 36.9C86.5267 36.9933 86.8333 37.1067 87.1 37.24V38ZM89.8661 33C89.8661 32.1867 89.9861 31.46 90.2261 30.82C90.4794 30.1667 90.8328 29.6133 91.2861 29.16C91.7528 28.7067 92.3128 28.36 92.9661 28.12C93.6194 27.88 94.3594 27.76 95.1861 27.76C96.1194 27.76 96.9194 27.8933 97.5861 28.16C98.2661 28.4133 98.8194 28.7733 99.2461 29.24C99.6861 29.6933 100.006 30.2467 100.206 30.9C100.406 31.54 100.506 32.24 100.506 33C100.506 33.8133 100.386 34.5467 100.146 35.2C99.9061 35.84 99.5528 36.3867 99.0861 36.84C98.6328 37.2933 98.0728 37.64 97.4061 37.88C96.7528 38.12 96.0128 38.24 95.1861 38.24C94.2794 38.24 93.4928 38.1133 92.8261 37.86C92.1594 37.5933 91.6061 37.2333 91.1661 36.78C90.7261 36.3133 90.3994 35.76 90.1861 35.12C89.9728 34.4667 89.8661 33.76 89.8661 33ZM92.9661 33C92.9661 33.6 92.9994 34.1533 93.0661 34.66C93.1461 35.1533 93.2794 35.5733 93.4661 35.92C93.6528 36.2667 93.9061 36.54 94.2261 36.74C94.5461 36.9267 94.9594 37.02 95.4661 37.02C95.7594 37.02 96.0261 36.9533 96.2661 36.82C96.5061 36.6733 96.7128 36.4467 96.8861 36.14C97.0594 35.82 97.1861 35.4067 97.2661 34.9C97.3594 34.38 97.4061 33.7467 97.4061 33C97.4061 32.3867 97.3661 31.8333 97.2861 31.34C97.2194 30.8467 97.0928 30.4267 96.9061 30.08C96.7328 29.7333 96.4928 29.4667 96.1861 29.28C95.8794 29.08 95.4928 28.98 95.0261 28.98C94.6794 28.98 94.3794 29.0533 94.1261 29.2C93.8728 29.3333 93.6594 29.56 93.4861 29.88C93.3128 30.1867 93.1794 30.6 93.0861 31.12C93.0061 31.6267 92.9661 32.2533 92.9661 33ZM102.541 34.04C102.541 33.2 102.561 32.42 102.601 31.7C102.641 30.98 102.661 30.22 102.661 29.42L101.341 29.26V28.48C101.554 28.4 101.814 28.32 102.121 28.24C102.441 28.16 102.768 28.0933 103.101 28.04C103.434 27.9733 103.754 27.92 104.061 27.88C104.381 27.8267 104.648 27.7867 104.861 27.76H105.541C105.541 28.76 105.521 29.7467 105.481 30.72C105.441 31.68 105.421 32.6267 105.421 33.56C105.421 34.6533 105.528 35.44 105.741 35.92C105.968 36.4 106.381 36.64 106.981 36.64C107.394 36.64 107.774 36.4867 108.121 36.18C108.481 35.86 108.774 35.3533 109.001 34.66V29.42L107.701 29.26V28.48C107.901 28.4 108.148 28.32 108.441 28.24C108.748 28.16 109.061 28.0933 109.381 28.04C109.714 27.9733 110.041 27.92 110.361 27.88C110.681 27.8267 110.961 27.7867 111.201 27.76H111.881V36.58L113.201 36.74V37.44C113.014 37.52 112.781 37.6 112.501 37.68C112.221 37.76 111.928 37.84 111.621 37.92C111.314 37.9867 111.008 38.04 110.701 38.08C110.408 38.1333 110.141 38.1733 109.901 38.2H109.221L109.081 35.82H109.001C108.934 36.1 108.814 36.3867 108.641 36.68C108.468 36.96 108.241 37.22 107.961 37.46C107.694 37.6867 107.374 37.8733 107.001 38.02C106.628 38.1667 106.214 38.24 105.761 38.24C105.254 38.24 104.801 38.1733 104.401 38.04C104.014 37.92 103.681 37.7 103.401 37.38C103.121 37.06 102.908 36.6333 102.761 36.1C102.614 35.5533 102.541 34.8667 102.541 34.04ZM119.363 30.3C119.203 30.38 119.016 30.5133 118.803 30.7C118.589 30.8867 118.396 31.1933 118.223 31.62V36.74C118.489 36.7667 118.756 36.82 119.023 36.9C119.289 36.9667 119.556 37.0733 119.823 37.22V38H114.023V37.22C114.263 37.0867 114.489 36.9867 114.703 36.92C114.916 36.8533 115.129 36.7933 115.343 36.74V29.42L114.023 29.26V28.48C114.236 28.3867 114.496 28.3 114.803 28.22C115.123 28.14 115.449 28.0733 115.783 28.02C116.116 27.9533 116.436 27.9 116.743 27.86C117.063 27.82 117.329 27.7867 117.543 27.76H118.223V30.42H118.303C118.409 30.1267 118.563 29.82 118.763 29.5C118.976 29.18 119.223 28.8867 119.503 28.62C119.783 28.3533 120.089 28.14 120.423 27.98C120.756 27.82 121.103 27.7467 121.463 27.76C121.609 27.9467 121.736 28.2133 121.843 28.56C121.949 28.8933 122.036 29.2133 122.103 29.52V30.3H119.363ZM128.316 38H122.796V37.22C122.996 37.1133 123.202 37.0267 123.416 36.96C123.629 36.88 123.862 36.8067 124.116 36.74V29.42L122.796 29.26V28.48C122.996 28.4 123.242 28.32 123.536 28.24C123.842 28.16 124.162 28.0933 124.496 28.04C124.829 27.9733 125.156 27.92 125.476 27.88C125.796 27.8267 126.076 27.7867 126.316 27.76H126.996V36.74C127.262 36.8067 127.502 36.88 127.716 36.96C127.929 37.0267 128.129 37.1133 128.316 37.22V38ZM123.776 24.72C123.776 24.2533 123.936 23.8867 124.256 23.62C124.576 23.3533 124.989 23.22 125.496 23.22C126.002 23.22 126.416 23.3533 126.736 23.62C127.056 23.8867 127.216 24.2533 127.216 24.72C127.216 25.1733 127.056 25.5333 126.736 25.8C126.416 26.0667 126.002 26.2 125.496 26.2C124.989 26.2 124.576 26.0667 124.256 25.8C123.936 25.5333 123.776 25.1733 123.776 24.72ZM134.576 35.82C134.576 35.4733 134.45 35.1733 134.196 34.92C133.956 34.6667 133.65 34.4333 133.276 34.22C132.916 34.0067 132.516 33.7933 132.076 33.58C131.65 33.3667 131.25 33.12 130.876 32.84C130.516 32.5467 130.21 32.2067 129.956 31.82C129.716 31.4333 129.596 30.96 129.596 30.4C129.596 30 129.69 29.64 129.876 29.32C130.063 28.9867 130.316 28.7067 130.636 28.48C130.956 28.2533 131.336 28.08 131.776 27.96C132.23 27.8267 132.716 27.76 133.236 27.76C133.956 27.76 134.623 27.82 135.236 27.94C135.863 28.0467 136.41 28.2 136.876 28.4C136.823 28.8267 136.716 29.2867 136.556 29.78C136.396 30.26 136.243 30.7 136.096 31.1H135.416L134.576 29.06C134.416 28.9933 134.25 28.9533 134.076 28.94C133.903 28.9133 133.71 28.9 133.496 28.9C133.096 28.9 132.79 29.02 132.576 29.26C132.376 29.4867 132.276 29.7467 132.276 30.04C132.276 30.3733 132.396 30.6667 132.636 30.92C132.89 31.16 133.196 31.3867 133.556 31.6C133.93 31.8133 134.33 32.0267 134.756 32.24C135.196 32.4533 135.596 32.7 135.956 32.98C136.33 33.2467 136.636 33.5667 136.876 33.94C137.13 34.3133 137.256 34.76 137.256 35.28C137.256 36.2 136.883 36.9267 136.136 37.46C135.39 37.98 134.39 38.24 133.136 38.24C132.496 38.24 131.836 38.1733 131.156 38.04C130.476 37.9067 129.89 37.72 129.396 37.48C129.423 37 129.536 36.5133 129.736 36.02C129.936 35.5267 130.15 35.0867 130.376 34.7H131.056L132.036 36.88C132.183 36.9867 132.343 37.0533 132.516 37.08C132.703 37.0933 132.876 37.1 133.036 37.1C133.423 37.1 133.776 36.9867 134.096 36.76C134.416 36.5333 134.576 36.22 134.576 35.82ZM138.019 28.48C138.526 28.16 139.059 27.9333 139.619 27.8V26.18C139.699 26.1 139.833 26.0267 140.019 25.96C140.219 25.88 140.426 25.8133 140.639 25.76C140.866 25.6933 141.086 25.6333 141.299 25.58C141.513 25.5267 141.686 25.4867 141.819 25.46H142.499V28H145.139V29.26H142.499V34.44C142.499 35.2667 142.599 35.84 142.799 36.16C143.013 36.48 143.359 36.64 143.839 36.64C144.079 36.64 144.346 36.6267 144.639 36.6C144.946 36.56 145.226 36.4933 145.479 36.4L145.619 37.06C145.499 37.18 145.319 37.3067 145.079 37.44C144.853 37.5733 144.586 37.7 144.279 37.82C143.986 37.94 143.659 38.04 143.299 38.12C142.953 38.2 142.586 38.24 142.199 38.24C141.333 38.24 140.686 38.0133 140.259 37.56C139.833 37.1067 139.619 36.3733 139.619 35.36V29.26H138.019V28.48ZM162.158 24C162.132 24.6 162.085 25.22 162.018 25.86C161.952 26.5 161.865 27.1 161.758 27.66H160.938L160.018 25.3H156.278V30.2H158.718L159.598 28.66H160.238C160.305 29.3133 160.338 30.04 160.338 30.84C160.338 31.64 160.305 32.3867 160.238 33.08H159.598L158.718 31.5H156.278V36.7H160.178L161.238 34.16H162.058C162.112 34.4133 162.165 34.7 162.218 35.02C162.272 35.34 162.312 35.6733 162.338 36.02C162.378 36.3533 162.405 36.6933 162.418 37.04C162.445 37.3867 162.458 37.7067 162.458 38H151.638V37.24C151.865 37.12 152.118 37.0067 152.398 36.9C152.678 36.7933 152.972 36.7133 153.278 36.66V25.34C153.012 25.2867 152.725 25.2133 152.418 25.12C152.125 25.0133 151.865 24.8933 151.638 24.76V24H162.158ZM170.169 32.64L173.329 36.74C173.675 36.8467 174.002 37.0067 174.309 37.22V38H169.209V37.24C169.355 37.1333 169.502 37.04 169.649 36.96C169.809 36.8667 169.969 36.7933 170.129 36.74L168.229 34.02L166.389 36.74C166.575 36.8067 166.735 36.88 166.869 36.96C167.015 37.04 167.155 37.1267 167.289 37.22V38H163.509V37.22C163.695 37.1133 163.862 37.02 164.009 36.94C164.169 36.86 164.349 36.7933 164.549 36.74L167.509 33.06L164.529 29.26C164.342 29.1933 164.175 29.1267 164.029 29.06C163.882 28.98 163.749 28.8867 163.629 28.78V28H168.649V28.76C168.489 28.8667 168.342 28.9667 168.209 29.06C168.089 29.14 167.935 29.2067 167.749 29.26L169.489 31.74L171.149 29.26C170.922 29.1933 170.742 29.12 170.609 29.04C170.475 28.96 170.355 28.8733 170.249 28.78V28H173.949V28.78C173.815 28.8733 173.669 28.96 173.509 29.04C173.349 29.12 173.149 29.1933 172.909 29.26L170.169 32.64ZM180.44 42H174.92V41.22C175.373 41.0067 175.813 40.8467 176.24 40.74V29.42L174.92 29.26V28.48C175.133 28.3867 175.393 28.3 175.7 28.22C176.02 28.14 176.347 28.0733 176.68 28.02C177.013 27.9533 177.333 27.9 177.64 27.86C177.96 27.82 178.227 27.7867 178.44 27.76H179.12V30H179.14C179.367 29.36 179.72 28.8267 180.2 28.4C180.693 27.9733 181.373 27.76 182.24 27.76C182.827 27.76 183.353 27.86 183.82 28.06C184.3 28.2467 184.7 28.5467 185.02 28.96C185.353 29.36 185.607 29.88 185.78 30.52C185.967 31.1467 186.06 31.9 186.06 32.78C186.06 33.62 185.94 34.38 185.7 35.06C185.473 35.74 185.14 36.3133 184.7 36.78C184.273 37.2467 183.747 37.6067 183.12 37.86C182.507 38.1133 181.807 38.24 181.02 38.24C180.567 38.24 180.207 38.2067 179.94 38.14C179.687 38.0867 179.413 37.9867 179.12 37.84V40.74C179.333 40.7667 179.547 40.8133 179.76 40.88C179.973 40.96 180.2 41.0733 180.44 41.22V42ZM181.08 29.36C180.627 29.36 180.22 29.52 179.86 29.84C179.513 30.16 179.267 30.6533 179.12 31.32V36.64C179.333 36.8 179.56 36.92 179.8 37C180.04 37.0667 180.353 37.1 180.74 37.1C181.5 37.1 182.06 36.7333 182.42 36C182.78 35.2667 182.96 34.1933 182.96 32.78C182.96 31.6867 182.82 30.8467 182.54 30.26C182.273 29.66 181.787 29.36 181.08 29.36ZM196.408 36.32C196.301 36.5467 196.128 36.78 195.888 37.02C195.661 37.2467 195.374 37.4533 195.028 37.64C194.694 37.8133 194.301 37.9533 193.848 38.06C193.408 38.18 192.928 38.24 192.408 38.24C191.581 38.24 190.848 38.12 190.208 37.88C189.568 37.6267 189.034 37.2733 188.608 36.82C188.181 36.3533 187.854 35.8 187.628 35.16C187.414 34.52 187.308 33.8 187.308 33C187.308 31.2933 187.754 29.9933 188.648 29.1C189.541 28.2067 190.781 27.76 192.368 27.76C193.048 27.76 193.681 27.8533 194.268 28.04C194.868 28.2267 195.361 28.5333 195.748 28.96C196.148 29.3867 196.421 29.9467 196.568 30.64C196.728 31.3333 196.721 32.18 196.548 33.18H190.408C190.421 34.2333 190.688 35.0733 191.208 35.7C191.741 36.3267 192.521 36.64 193.548 36.64C193.988 36.64 194.441 36.5733 194.908 36.44C195.388 36.3067 195.761 36.1333 196.028 35.92L196.408 36.32ZM192.288 28.9C192.021 28.9 191.781 28.9467 191.568 29.04C191.368 29.1333 191.188 29.3067 191.028 29.56C190.881 29.8 190.761 30.1333 190.668 30.56C190.574 30.9733 190.508 31.5 190.468 32.14H193.688C193.781 31.1 193.721 30.3 193.508 29.74C193.294 29.18 192.888 28.9 192.288 28.9ZM204.87 36.02C204.803 36.3133 204.683 36.5933 204.51 36.86C204.336 37.1267 204.13 37.3667 203.89 37.58C203.65 37.78 203.376 37.94 203.07 38.06C202.763 38.18 202.436 38.24 202.09 38.24C200.77 38.24 199.763 37.8267 199.07 37C198.39 36.16 198.05 34.88 198.05 33.16C198.05 32.28 198.17 31.5133 198.41 30.86C198.65 30.1933 198.983 29.6333 199.41 29.18C199.85 28.7267 200.376 28.3867 200.99 28.16C201.603 27.9333 202.283 27.82 203.03 27.82C203.27 27.82 203.47 27.8267 203.63 27.84C203.803 27.8533 203.956 27.8733 204.09 27.9C204.236 27.9133 204.37 27.9467 204.49 28C204.623 28.04 204.77 28.0867 204.93 28.14V24.62L203.41 24.46V23.68C203.596 23.6 203.85 23.5267 204.17 23.46C204.503 23.3933 204.85 23.3333 205.21 23.28C205.57 23.2133 205.923 23.1533 206.27 23.1C206.616 23.0467 206.903 23 207.13 22.96H207.81V36.58L209.13 36.74V37.44C208.943 37.5333 208.703 37.62 208.41 37.7C208.116 37.78 207.81 37.8533 207.49 37.92C207.17 37.9867 206.856 38.04 206.55 38.08C206.256 38.1333 206.01 38.1733 205.81 38.2H205.13L204.95 36.02H204.87ZM203.05 36.64C203.516 36.64 203.91 36.4933 204.23 36.2C204.55 35.9067 204.783 35.4067 204.93 34.7V29.32C204.756 29.2133 204.536 29.1267 204.27 29.06C204.016 28.9933 203.696 28.96 203.31 28.96C202.536 28.96 201.983 29.3133 201.65 30.02C201.316 30.7133 201.15 31.7267 201.15 33.06C201.15 34.14 201.296 35.0067 201.59 35.66C201.883 36.3133 202.37 36.64 203.05 36.64ZM215.542 38H210.022V37.22C210.222 37.1133 210.429 37.0267 210.642 36.96C210.856 36.88 211.089 36.8067 211.342 36.74V29.42L210.022 29.26V28.48C210.222 28.4 210.469 28.32 210.762 28.24C211.069 28.16 211.389 28.0933 211.722 28.04C212.056 27.9733 212.382 27.92 212.702 27.88C213.022 27.8267 213.302 27.7867 213.542 27.76H214.222V36.74C214.489 36.8067 214.729 36.88 214.942 36.96C215.156 37.0267 215.356 37.1133 215.542 37.22V38ZM211.002 24.72C211.002 24.2533 211.162 23.8867 211.482 23.62C211.802 23.3533 212.216 23.22 212.722 23.22C213.229 23.22 213.642 23.3533 213.962 23.62C214.282 23.8867 214.442 24.2533 214.442 24.72C214.442 25.1733 214.282 25.5333 213.962 25.8C213.642 26.0667 213.229 26.2 212.722 26.2C212.216 26.2 211.802 26.0667 211.482 25.8C211.162 25.5333 211.002 25.1733 211.002 24.72ZM216.203 28.48C216.71 28.16 217.243 27.9333 217.803 27.8V26.18C217.883 26.1 218.016 26.0267 218.203 25.96C218.403 25.88 218.61 25.8133 218.823 25.76C219.05 25.6933 219.27 25.6333 219.483 25.58C219.696 25.5267 219.87 25.4867 220.003 25.46H220.683V28H223.323V29.26H220.683V34.44C220.683 35.2667 220.783 35.84 220.983 36.16C221.196 36.48 221.543 36.64 222.023 36.64C222.263 36.64 222.53 36.6267 222.823 36.6C223.13 36.56 223.41 36.4933 223.663 36.4L223.803 37.06C223.683 37.18 223.503 37.3067 223.263 37.44C223.036 37.5733 222.77 37.7 222.463 37.82C222.17 37.94 221.843 38.04 221.483 38.12C221.136 38.2 220.77 38.24 220.383 38.24C219.516 38.24 218.87 38.0133 218.443 37.56C218.016 37.1067 217.803 36.3733 217.803 35.36V29.26H216.203V28.48ZM230.171 38H224.651V37.22C224.851 37.1133 225.058 37.0267 225.271 36.96C225.485 36.88 225.718 36.8067 225.971 36.74V29.42L224.651 29.26V28.48C224.851 28.4 225.098 28.32 225.391 28.24C225.698 28.16 226.018 28.0933 226.351 28.04C226.685 27.9733 227.011 27.92 227.331 27.88C227.651 27.8267 227.931 27.7867 228.171 27.76H228.851V36.74C229.118 36.8067 229.358 36.88 229.571 36.96C229.785 37.0267 229.985 37.1133 230.171 37.22V38ZM225.631 24.72C225.631 24.2533 225.791 23.8867 226.111 23.62C226.431 23.3533 226.845 23.22 227.351 23.22C227.858 23.22 228.271 23.3533 228.591 23.62C228.911 23.8867 229.071 24.2533 229.071 24.72C229.071 25.1733 228.911 25.5333 228.591 25.8C228.271 26.0667 227.858 26.2 227.351 26.2C226.845 26.2 226.431 26.0667 226.111 25.8C225.791 25.5333 225.631 25.1733 225.631 24.72ZM231.292 33C231.292 32.1867 231.412 31.46 231.652 30.82C231.905 30.1667 232.259 29.6133 232.712 29.16C233.179 28.7067 233.739 28.36 234.392 28.12C235.045 27.88 235.785 27.76 236.612 27.76C237.545 27.76 238.345 27.8933 239.012 28.16C239.692 28.4133 240.245 28.7733 240.672 29.24C241.112 29.6933 241.432 30.2467 241.632 30.9C241.832 31.54 241.932 32.24 241.932 33C241.932 33.8133 241.812 34.5467 241.572 35.2C241.332 35.84 240.979 36.3867 240.512 36.84C240.059 37.2933 239.499 37.64 238.832 37.88C238.179 38.12 237.439 38.24 236.612 38.24C235.705 38.24 234.919 38.1133 234.252 37.86C233.585 37.5933 233.032 37.2333 232.592 36.78C232.152 36.3133 231.825 35.76 231.612 35.12C231.399 34.4667 231.292 33.76 231.292 33ZM234.392 33C234.392 33.6 234.425 34.1533 234.492 34.66C234.572 35.1533 234.705 35.5733 234.892 35.92C235.079 36.2667 235.332 36.54 235.652 36.74C235.972 36.9267 236.385 37.02 236.892 37.02C237.185 37.02 237.452 36.9533 237.692 36.82C237.932 36.6733 238.139 36.4467 238.312 36.14C238.485 35.82 238.612 35.4067 238.692 34.9C238.785 34.38 238.832 33.7467 238.832 33C238.832 32.3867 238.792 31.8333 238.712 31.34C238.645 30.8467 238.519 30.4267 238.332 30.08C238.159 29.7333 237.919 29.4667 237.612 29.28C237.305 29.08 236.919 28.98 236.452 28.98C236.105 28.98 235.805 29.0533 235.552 29.2C235.299 29.3333 235.085 29.56 234.912 29.88C234.739 30.1867 234.605 30.6 234.512 31.12C234.432 31.6267 234.392 32.2533 234.392 33ZM255.187 38H249.887V37.22C250.06 37.1267 250.227 37.0467 250.387 36.98C250.56 36.9 250.76 36.82 250.987 36.74V32.04C250.987 31.2 250.867 30.5467 250.627 30.08C250.387 29.6 249.96 29.36 249.347 29.36C248.84 29.36 248.4 29.5267 248.027 29.86C247.667 30.18 247.394 30.62 247.207 31.18V36.74C247.42 36.7933 247.607 36.86 247.767 36.94C247.94 37.0067 248.12 37.1 248.307 37.22V38H243.007V37.22C243.34 37.0467 243.78 36.8867 244.327 36.74V29.42L243.007 29.26V28.48C243.18 28.4 243.407 28.3267 243.687 28.26C243.967 28.18 244.267 28.1067 244.587 28.04C244.92 27.9733 245.254 27.92 245.587 27.88C245.934 27.8267 246.247 27.7867 246.527 27.76H247.207V29.82H247.227C247.507 29.26 247.927 28.78 248.487 28.38C249.047 27.9667 249.727 27.76 250.527 27.76C251.047 27.76 251.514 27.8267 251.927 27.96C252.34 28.08 252.687 28.3 252.967 28.62C253.26 28.94 253.48 29.3733 253.627 29.92C253.787 30.4533 253.867 31.1333 253.867 31.96V36.74C254.4 36.8333 254.84 36.9933 255.187 37.22V38Z" fill="white"/>
<circle cx="30" cy="30" r="29.5" stroke="white"/>
</svg>
